# xmcd
#
# Track frame offsets:
#	150
#	21204
#	38810
#	56214
#	66964
#	76119
#	88886
#
# Disc length: 1409 seconds
#
# Revision: 0
# Processed by: cddbd v1.5.1PL0 Copyright (c) Steve Scherf et al.
# Submitted via: dBpowerAMP V4.0
#
DISCID=57057f07
DTITLE=Monica - 100% Mennske
DYEAR=1900
DGENRE=Country
TTITLE0=Velkommen Liv
TTITLE1=Ikkje Aleina
TTITLE2=I Skyggen
TTITLE3=Det Er Godt Å Leve
TTITLE4=100% Sikker
TTITLE5=Believe Me
TTITLE6=Ikkje Aleine (Reprise)
EXTD=Monica Voilås Myklebust
EXTT0=
EXTT1=
EXTT2=
EXTT3=
EXTT4=
EXTT5=
EXTT6=
PLAYORDER=
